<svg xmlns="http://www.w3.org/2000/svg" width="24" height="24" viewBox="0 0 24 24" fill="none">
  <g clip-path="url(#clip0_610_4673)">
    <mask id="mask0_610_4673" style="mask-type:luminance" maskUnits="userSpaceOnUse" x="0" y="0" width="24" height="24">
      <path d="M23.3999 23.4V0.600071H0.6V23.4H23.3999Z" fill="white" stroke="white" stroke-width="1.2"/>
    </mask>
    <g mask="url(#mask0_610_4673)">
      <path d="M19 2V5H16" stroke="black" stroke-width="1.2" stroke-miterlimit="10" stroke-linecap="round" stroke-linejoin="round"/>
      <path d="M5 22V19H8" stroke="black" stroke-width="1.2" stroke-miterlimit="10" stroke-linecap="round" stroke-linejoin="round"/>
      <path d="M3.3354 16C2.48762 14.6269 2 13.0341 2 11.3337C2 6.17883 6.45916 2 11.9598 2C14.7103 2 17.1982 3.04646 19 4.73614" stroke="black" stroke-width="1.2" stroke-miterlimit="10" stroke-linecap="round" stroke-linejoin="round"/>
      <path d="M20.6646 8C21.5124 9.3731 22 10.9659 22 12.6663C22 17.8212 17.5408 22 12.0402 22C9.28967 22 6.80174 20.9535 5 19.2639" stroke="black" stroke-width="1.2" stroke-miterlimit="10" stroke-linecap="round" stroke-linejoin="round"/>
      <path d="M16.4529 12C16.4531 11.6994 16.4229 11.3994 16.3628 11.1048L17.5744 10.4054L16.1681 7.96967L14.9516 8.67204C14.5065 8.27698 13.9834 7.96939 13.4061 7.77715V6.37503H10.5936V7.77715C10.0163 7.96939 9.49316 8.27698 9.04808 8.67204L7.83154 7.96967L6.42529 10.4054L7.63687 11.1048C7.57679 11.3994 7.54659 11.6994 7.54673 12C7.54659 12.3007 7.57679 12.6006 7.63687 12.8952L6.42529 13.5947L7.83154 16.0304L9.04808 15.328C9.49316 15.7231 10.0163 16.0307 10.5936 16.2229V17.625H13.4061V16.2229C13.9834 16.0307 14.5065 15.7231 14.9516 15.328L16.1681 16.0304L17.5744 13.5947L16.3628 12.8952C16.4229 12.6006 16.4531 12.3007 16.4529 12Z" stroke="black" stroke-width="1.2" stroke-miterlimit="10" stroke-linecap="round" stroke-linejoin="round"/>
      <path d="M13.875 12C13.875 13.0355 13.0356 13.875 12 13.875C10.9644 13.875 10.125 13.0355 10.125 12C10.125 10.9645 10.9644 10.125 12 10.125C13.0356 10.125 13.875 10.9645 13.875 12Z" stroke="black" stroke-width="1.2" stroke-miterlimit="10" stroke-linecap="round" stroke-linejoin="round"/>
    </g>
  </g>
  <defs>
    <clipPath id="clip0_610_4673">
      <rect width="24" height="24" fill="white"/>
    </clipPath>
  </defs>
</svg>