<svg width="50" height="50" viewBox="0 0 50 50" fill="none" xmlns="http://www.w3.org/2000/svg">
<g opacity="0.2" clip-path="url(#clip0_557_9491)">
<path d="M44.7917 18.75H34.375C33.8 18.75 33.3333 19.2167 33.3333 19.7917C33.3333 20.3667 33.8 20.8334 34.375 20.8334H44.7917C46.5146 20.8334 47.9167 22.2354 47.9167 23.9584V44.7917C47.9167 46.5146 46.5146 47.9167 44.7917 47.9167H23.9583C22.2354 47.9167 20.8333 46.5146 20.8333 44.7917V36.4584C20.8333 35.8834 20.3666 35.4167 19.7916 35.4167C19.2166 35.4167 18.75 35.8833 18.75 36.4583V44.7916C18.75 47.6625 21.0875 50 23.9583 50H44.7916C47.6625 50 50 47.6625 50 44.7917V23.9583C50 21.0875 47.6625 18.75 44.7917 18.75ZM15.625 29.1667H14.5833C14.0083 29.1667 13.5416 29.6334 13.5416 30.2084C13.5416 30.7834 14.0083 31.25 14.5833 31.25H15.625C16.2 31.25 16.6667 30.7833 16.6667 30.2083C16.6667 29.6333 16.2 29.1667 15.625 29.1667ZM6.12705 0H5.2083C4.71045 0 4.21875 0.0708008 3.7458 0.208301C3.19375 0.370801 2.87705 0.95 3.0375 1.50205C3.1708 1.95625 3.5875 2.25 4.0375 2.25C4.13545 2.25 4.2333 2.2375 4.33125 2.2083C4.61611 2.12486 4.91147 2.08276 5.2083 2.0833H6.12705C6.7041 2.0833 7.16875 1.6166 7.16875 1.0416C7.16875 0.466602 6.70205 0 6.12705 0ZM2.0833 25.1187V23.0125C2.0833 22.4375 1.6166 21.9708 1.0416 21.9708C0.466602 21.9708 0 22.4375 0 23.0125V25.1187C0 25.6938 0.466699 26.1604 1.0417 26.1604C1.6167 26.1604 2.0833 25.6938 2.0833 25.1187ZM1.0417 19.8417C1.6167 19.8417 2.0834 19.375 2.0834 18.8V16.6938C2.0834 16.1187 1.6167 15.6521 1.0417 15.6521C0.466699 15.6521 0 16.1187 0 16.6938V18.8C0 19.375 0.466699 19.8417 1.0417 19.8417ZM1.0417 7.20625C1.6167 7.20625 2.0834 6.73955 2.0834 6.16455V5.2083C2.0834 4.91875 2.12295 4.6333 2.2001 4.3583C2.35635 3.8041 2.03555 3.2291 1.48135 3.07285C0.931348 2.9083 0.352148 3.23535 0.195898 3.7916C0.0662518 4.25268 0.00034029 4.72934 0 5.2083V6.16455C0 6.73955 0.466699 7.20625 1.0417 7.20625ZM1.0417 13.525C1.6167 13.525 2.0834 13.0583 2.0834 12.4833V10.3771C2.0834 9.80205 1.6167 9.33535 1.0417 9.33535C0.466699 9.33535 0 9.80205 0 10.3771V12.4833C0 13.0583 0.466699 13.525 1.0417 13.525ZM4.3542 29.0479C3.84623 28.9024 3.38329 28.6308 3.0084 28.2584C2.60215 27.8521 1.9417 27.8563 1.53545 28.2626C1.1292 28.6709 1.13125 29.3313 1.53965 29.7355C2.16455 30.3577 2.93735 30.8108 3.78545 31.0522C3.87833 31.0785 3.97438 31.0918 4.0709 31.0918C4.52295 31.0918 4.9417 30.7938 5.0709 30.3355C5.2292 29.7812 4.9083 29.2042 4.3542 29.0479ZM30.0396 5.075C30.1354 5.075 30.2333 5.0625 30.3313 5.03125C30.8833 4.86875 31.2021 4.2917 31.0396 3.73955C30.7938 2.89785 30.3313 2.125 29.7041 1.5041C29.2958 1.0999 28.6354 1.10205 28.2312 1.5124C27.827 1.9207 27.8312 2.58115 28.2395 2.98535C28.6145 3.36035 28.8937 3.82285 29.0395 4.3249C29.1028 4.54117 29.2344 4.73113 29.4147 4.86634C29.595 5.00155 29.8142 5.07476 30.0396 5.075ZM25.0812 0H22.975C22.4 0 21.9333 0.466699 21.9333 1.0417C21.9333 1.6167 22.4 2.0834 22.975 2.0834H25.0812C25.6562 2.0834 26.1229 1.6167 26.1229 1.0417C26.1229 0.466699 25.6562 0 25.0812 0ZM10.3729 29.1667H8.2667C7.6917 29.1667 7.225 29.6334 7.225 30.2084C7.225 30.7834 7.6917 31.25 8.2667 31.25H10.3729C10.9479 31.25 11.4146 30.7833 11.4146 30.2083C11.4146 29.6333 10.9479 29.1667 10.3729 29.1667ZM30.2083 7.1875C29.6333 7.1875 29.1666 7.6542 29.1666 8.2292V10.3354C29.1666 10.9104 29.6333 11.3771 30.2083 11.3771C30.7833 11.3771 31.25 10.9104 31.25 10.3354V8.2292C31.25 7.65205 30.7833 7.1875 30.2083 7.1875ZM18.7646 0H16.6583C16.0812 0 15.6166 0.466699 15.6166 1.0417C15.6166 1.6167 16.0833 2.0834 16.6583 2.0834H18.7625C19.3396 2.0834 19.8062 1.6167 19.8062 1.0417C19.8062 0.466699 19.3396 0 18.7646 0ZM12.4458 0H10.3396C9.76455 0 9.29785 0.466699 9.29785 1.0417C9.29785 1.6167 9.76455 2.0834 10.3396 2.0834H12.4458C13.0208 2.0834 13.4875 1.6167 13.4875 1.0417C13.4875 0.466699 13.0208 0 12.4458 0ZM30.2083 13.5417C29.6333 13.5417 29.1666 14.0084 29.1666 14.5834V15.625C29.1666 16.2 29.6333 16.6667 30.2083 16.6667C30.7833 16.6667 31.25 16.2 31.25 15.625V14.5833C31.25 14.0083 30.7833 13.5417 30.2083 13.5417Z" fill="black"/>
<path d="M34.1751 18.1167L30.9459 14.8875C29.6792 13.6208 27.6146 13.6208 26.3479 14.8875C25.9808 15.254 25.7071 15.7035 25.55 16.198C24.4146 15.8022 23.0562 16.0959 22.1812 16.9709C21.7042 17.448 21.4083 18.0376 21.2896 18.6542C20.2958 18.5146 19.2583 18.8521 18.5354 19.575C17.8437 20.2667 17.5291 21.1938 17.5916 22.1C16.8876 22.1952 16.2346 22.5196 15.7333 23.023C15.1188 23.6375 14.7812 24.4542 14.7812 25.323C14.7812 26.1917 15.1188 27.0105 15.7333 27.623L16.6666 28.5562V32.2917C16.6668 35.1625 19.0043 37.5 21.8751 37.5H26.1459C32.4063 37.5 37.5001 32.4062 37.5001 26.1458C37.5001 23.1146 36.3188 20.2625 34.1751 18.1167ZM26.1459 35.4167H21.8751C20.1521 35.4167 18.7501 34.0146 18.7501 32.2917V30.6397L21.1396 33.0292C21.5459 33.4354 22.2063 33.4354 22.6126 33.0292C22.8073 32.8332 22.9166 32.568 22.9166 32.2917C22.9166 32.0154 22.8073 31.7502 22.6126 31.5542L17.2063 26.148C16.9855 25.9292 16.8646 25.6334 16.8646 25.323C16.8646 25.0125 16.9854 24.7188 17.2063 24.4979C17.648 24.0563 18.4168 24.0563 18.8584 24.4979L21.1396 26.7792C21.5459 27.1854 22.2063 27.1854 22.6126 26.7792C22.8074 26.5832 22.9168 26.3181 22.9168 26.0417C22.9168 25.775 22.8147 25.5084 22.6126 25.3062L20.0084 22.7021C19.5521 22.2458 19.5521 21.5063 20.0084 21.05C20.4501 20.6083 21.2188 20.6083 21.6604 21.05L23.2229 22.6125C23.6292 23.0188 24.2896 23.0188 24.6959 22.6125C24.8979 22.4083 25.0001 22.1417 25.0001 21.875C25.0001 21.6083 24.898 21.3417 24.6959 21.1396L23.6542 20.0979C23.1979 19.6416 23.1979 18.9021 23.6542 18.4458C24.0959 18.0041 24.8646 18.0041 25.3063 18.4458L26.3479 19.4875C26.7542 19.8938 27.4146 19.8938 27.8209 19.4875C28.023 19.2833 28.1251 19.0167 28.1251 18.75C28.1251 18.4833 28.023 18.2167 27.8188 18.0125C27.598 17.7938 27.4771 17.5 27.4771 17.1875C27.4771 16.875 27.6001 16.5813 27.8209 16.3625C28.2771 15.9063 29.0167 15.9063 29.4729 16.3625L32.7021 19.5917C34.4521 21.3417 35.4167 23.6709 35.4167 26.1459C35.4168 31.2583 31.2584 35.4167 26.1459 35.4167Z" fill="black"/>
</g>
<defs>
<clipPath id="clip0_557_9491">
<rect width="50" height="50" fill="white"/>
</clipPath>
</defs>
</svg>
